<svg xmlns="http://www.w3.org/2000/svg" width="43.509" height="43.509" viewBox="0 0 43.509 43.509"><g transform="translate(23.651 -4.726) rotate(45)"><path d="M17.381,4.564a12.819,12.819,0,1,0,11.655,7.471,1.282,1.282,0,0,1,2.328-1.069A15.382,15.382,0,1,1,17.381,2Z" transform="translate(0 2.683)" fill="#fcf8ec" fill-rule="evenodd"/><path d="M8,11.005V.925A.641.641,0,0,1,9.051.433l6.05,5.04a.64.64,0,0,1,0,.984L9.051,11.5A.641.641,0,0,1,8,11.005Z" transform="translate(9.381 0)" fill="#fcf8ec"/></g></svg>